# xmcd CD database file
#
# Track frame offsets:
#	150
#	20297
#	38310
#	60972
#	79240
#	99917
#	122550
#	142320
#	163612
#	182287
#	198665
#	213817
#	230885
#	248800
#	264815
#	287045
#	305267
#
# Disc length: 4279 seconds
#
# Revision: 0
# Processed by: cddbd v1.5.1PL0 Copyright (c) Steve Scherf et al.
# Submitted via: CDex 1.51
#
DISCID=da10b511
DTITLE=HAREM SCAREM - Rocks
DYEAR=2001
DGENRE=Hard Rock
TTITLE0=Hard To Love
TTITLE1=With A Little Love
TTITLE2=How Long
TTITLE3=Saviors Never Cry
TTITLE4=No Justice
TTITLE5=Change Comes Around
TTITLE6=Sentimental Blvd.
TTITLE7=Die Off Hard
TTITLE8=Believe
TTITLE9=So Blind
TTITLE10=Turn Around
TTITLE11=Climb The Gate
TTITLE12=Sometimes I With
TTITLE13=Stuck With You
TTITLE14=Trip
TTITLE15=If I'd Been Awake
TTITLE16=Going Nowhere
EXTD=YEAR: 2001
EXTT0=
EXTT1=
EXTT2=
EXTT3=
EXTT4=
EXTT5=
EXTT6=
EXTT7=
EXTT8=
EXTT9=
EXTT10=
EXTT11=
EXTT12=
EXTT13=
EXTT14=
EXTT15=
EXTT16=
PLAYORDER=
